<svg id="SvgjsSvg1006" width="370" height="386.6388854980469" xmlns="http://www.w3.org/2000/svg" version="1.1" xmlns:xlink="http://www.w3.org/1999/xlink" xmlns:svgjs="http://svgjs.com/svgjs"><defs id="SvgjsDefs1007"><marker id="SvgjsMarker1028" markerWidth="14" markerHeight="10" refX="10" refY="5" viewBox="0 0 14 10" orient="auto" markerUnits="userSpaceOnUse" stroke-dasharray="0,0"><path id="SvgjsPath1029" d="M0,0 L14,5 L0,10 L0,0" fill="#323232" stroke="#323232" stroke-width="1"></path></marker><marker id="SvgjsMarker1042" markerWidth="14" markerHeight="10" refX="10" refY="5" viewBox="0 0 14 10" orient="auto" markerUnits="userSpaceOnUse" stroke-dasharray="0,0"><path id="SvgjsPath1043" d="M0,0 L14,5 L0,10 L0,0" fill="#323232" stroke="#323232" stroke-width="1"></path></marker></defs><g id="SvgjsG1008" transform="translate(25.00347900390625,25.01734161376953)"><path id="SvgjsPath1009" d="M 0 4Q 0 0 4 0L 316 0Q 320 0 320 4L 320 102Q 320 106 316 106L 4 106Q 0 106 0 102Z" stroke="rgba(50,50,50,1)" stroke-width="2" fill-opacity="1" fill="#ffffff"></path><g id="SvgjsG1010"><text id="SvgjsText1011" font-family="微软雅黑" text-anchor="middle" font-size="13px" width="310px" fill="#323232" font-weight="400" align="middle" lineHeight="125%" anchor="middle" family="微软雅黑" size="13px" weight="400" font-style="" opacity="1" y="-2.053571428571429" transform="rotate(0)"><tspan id="SvgjsTspan1012" dy="16" x="160"><tspan id="SvgjsTspan1013" style="text-decoration:;">VBox</tspan></tspan></text></g></g><g id="SvgjsG1014" transform="translate(58.00347900390625,46.01734161376953)"><path id="SvgjsPath1015" d="M 0 4Q 0 0 4 0L 96 0Q 100 0 100 4L 100 66Q 100 70 96 70L 4 70Q 0 70 0 66Z" stroke="rgba(50,50,50,1)" stroke-width="2" fill-opacity="1" fill="#ffffff"></path><g id="SvgjsG1016"><text id="SvgjsText1017" font-family="微软雅黑" text-anchor="middle" font-size="13px" width="80px" fill="#323232" font-weight="400" align="middle" lineHeight="125%" anchor="middle" family="微软雅黑" size="13px" weight="400" font-style="" opacity="1" y="24.375" transform="rotate(0)"><tspan id="SvgjsTspan1018" dy="16" x="50"><tspan id="SvgjsTspan1019" style="text-decoration:;">输入框</tspan></tspan></text></g></g><g id="SvgjsG1020" transform="translate(215.00347900390625,46.01734161376953)"><path id="SvgjsPath1021" d="M 0 4Q 0 0 4 0L 96 0Q 100 0 100 4L 100 66Q 100 70 96 70L 4 70Q 0 70 0 66Z" stroke="rgba(50,50,50,1)" stroke-width="2" fill-opacity="1" fill="#ffffff"></path><g id="SvgjsG1022"><text id="SvgjsText1023" font-family="微软雅黑" text-anchor="middle" font-size="13px" width="80px" fill="#323232" font-weight="400" align="middle" lineHeight="125%" anchor="middle" family="微软雅黑" size="13px" weight="400" font-style="" opacity="1" y="24.375" transform="rotate(0)"><tspan id="SvgjsTspan1024" dy="16" x="50"><tspan id="SvgjsTspan1025" style="text-decoration:;">结果列表</tspan></tspan></text></g></g><g id="SvgjsG1026"><path id="SvgjsPath1027" d="M265.00347900390625 117.01734161376953L265.00347900390625 154.4086462402344L264.2034790039063 154.4086462402344L264.2034790039063 189.19995086669923" stroke="#323232" stroke-width="2" fill="none" marker-end="url(#SvgjsMarker1028)"></path><rect id="SvgjsRect1030" width="52" height="16" x="239.00347900390625" y="145.50864624023436" fill="#ffffff"></rect><text id="SvgjsText1031" font-family="微软雅黑" text-anchor="middle" font-size="13px" width="52px" fill="#323232" font-weight="400" align="top" lineHeight="16px" anchor="middle" family="微软雅黑" size="13px" weight="400" font-style="" opacity="1" y="142.88364624023436" transform="rotate(0)"><tspan id="SvgjsTspan1032" dy="16" x="265.00347900390625"><tspan id="SvgjsTspan1033" style="text-decoration:;">点击触发</tspan></tspan></text></g><g id="SvgjsG1034" transform="translate(188.00347900390625,191.76995086669928)"><path id="SvgjsPath1035" d="M 15.24 72.1C -12.700000000000001 51.5 5.08 36.05 11.43 30.9C 8.89 5.15 40.64 0 53.339999999999996 10.3C 63.5 -5.15 95.25 0 95.25 15.45C 120.64999999999999 10.3 130.81 30.9 120.64999999999999 56.650000000000006C 129.54 77.25 120.64999999999999 103 91.44 92.7C 85.09 106.09 59.69 106.09 53.339999999999996 92.7C 40.64 103 15.24 97.85 15.24 72.1Z" stroke="rgba(50,50,50,1)" stroke-width="2" fill-opacity="1" fill="#ffffff"></path><g id="SvgjsG1036"><text id="SvgjsText1037" font-family="微软雅黑" text-anchor="middle" font-size="13px" width="107px" fill="#323232" font-weight="400" align="middle" lineHeight="125%" anchor="middle" family="微软雅黑" size="13px" weight="400" font-style="" opacity="1" y="40.875" transform="rotate(0)"><tspan id="SvgjsTspan1038" dy="16" x="63.5"><tspan id="SvgjsTspan1039" style="text-decoration:;">触发剪贴板写入</tspan></tspan></text></g></g><g id="SvgjsG1040"><path id="SvgjsPath1041" d="M108.00347900390625 117.01734161376953L108.00347900390625 179.33049392700195L110.18889007568362 179.33049392700195L110.18889007568362 239.0436462402343" stroke="#323232" stroke-width="2" fill="none" marker-end="url(#SvgjsMarker1042)"></path><rect id="SvgjsRect1044" width="78" height="16" x="69.00347900390625" y="171.1231994628906" fill="#ffffff"></rect><text id="SvgjsText1045" font-family="微软雅黑" text-anchor="middle" font-size="13px" width="78px" fill="#323232" font-weight="400" align="top" lineHeight="16px" anchor="middle" family="微软雅黑" size="13px" weight="400" font-style="" opacity="1" y="168.4981994628906" transform="rotate(0)"><tspan id="SvgjsTspan1046" dy="16" x="108.00347900390625"><tspan id="SvgjsTspan1047" style="text-decoration:;">内容改变触发</tspan></tspan></text></g><g id="SvgjsG1048" transform="translate(25.00347900390625,242.64364624023432)"><path id="SvgjsPath1049" d="M 17.03708221435547 83.12682647705077C -14.197568511962892 59.376304626464844 5.679027404785156 41.563413238525385 12.7778116607666 35.6257827758789C 9.938297958374024 5.937630462646485 45.43221923828125 0 59.62978775024414 11.87526092529297C 70.98784255981445 -5.937630462646485 106.48176383972168 0 106.48176383972168 17.81289138793945C 134.87690086364745 11.87526092529297 146.23495567321777 35.6257827758789 134.87690086364745 65.31393508911134C 144.8151988220215 89.06445693969727 134.87690086364745 118.75260925292969 102.2224932861328 106.87734832763672C 95.12370903015137 122.31518753051758 66.72857200622558 122.31518753051758 59.62978775024414 106.87734832763672C 45.43221923828125 118.75260925292969 17.03708221435547 112.81497879028319 17.03708221435547 83.12682647705077Z" stroke="rgba(50,50,50,1)" stroke-width="2" fill-opacity="1" fill="#ffffff"></path><g id="SvgjsG1050"><text id="SvgjsText1051" font-family="微软雅黑" text-anchor="middle" font-size="13px" width="122px" fill="#323232" font-weight="400" align="middle" lineHeight="125%" anchor="middle" family="微软雅黑" size="13px" weight="400" font-style="" opacity="1" y="40.751304626464844" transform="rotate(0)"><tspan id="SvgjsTspan1052" dy="16" x="71"><tspan id="SvgjsTspan1053" style="text-decoration:;">重新计算结果</tspan></tspan><tspan id="SvgjsTspan1054" dy="16" x="71"><tspan id="SvgjsTspan1055" style="text-decoration:;">刷新结果列表</tspan></tspan></text></g></g></svg>